<svg data-v-423bf9ae="" xmlns="http://www.w3.org/2000/svg" viewBox="0 0 85.31249336432676 60" class="font"><!----><!----><!----><g data-v-423bf9ae="" id="6f49a3f0-55b9-403c-833a-55a13145417c" fill="black" transform="matrix(4.687499930150808,0,0,4.687499930150808,-2.4374998942949375,-13.125000296160586)"><path d="M3.64 12.74L3.64 12.74Q2.64 12.74 1.93 12.25L1.93 12.25L1.93 12.25Q1.23 11.76 0.88 10.95L0.88 10.95L0.88 10.95Q0.52 10.14 0.52 9.20L0.52 9.20L0.52 9.20Q0.52 8.26 0.87 7.45L0.87 7.45L0.87 7.45Q1.22 6.63 1.93 6.13L1.93 6.13L1.93 6.13Q2.63 5.63 3.63 5.63L3.63 5.63L3.63 5.63Q4.60 5.63 5.33 6.13L5.33 6.13L5.33 6.13Q6.05 6.62 6.43 7.54L6.43 7.54L5.17 8.05L5.17 8.05Q5.02 7.49 4.61 7.14L4.61 7.14L4.61 7.14Q4.20 6.80 3.63 6.80L3.63 6.80L3.63 6.80Q3.02 6.80 2.63 7.15L2.63 7.15L2.63 7.15Q2.23 7.50 2.05 8.04L2.05 8.04L2.05 8.04Q1.87 8.59 1.87 9.20L1.87 9.20L1.87 9.20Q1.87 9.82 2.04 10.36L2.04 10.36L2.04 10.36Q2.22 10.90 2.62 11.24L2.62 11.24L2.62 11.24Q3.01 11.58 3.63 11.58L3.63 11.58L3.63 11.58Q4.19 11.58 4.61 11.25L4.61 11.25L4.61 11.25Q5.02 10.91 5.17 10.36L5.17 10.36L6.35 10.83L6.35 10.83Q6.03 11.73 5.32 12.24L5.32 12.24L5.32 12.24Q4.61 12.74 3.64 12.74L3.64 12.74ZM8.18 12.61L8.18 6.88L6.94 6.88L6.94 5.78L8.19 5.78L8.19 4.74L8.19 4.74Q8.19 4.12 8.46 3.68L8.46 3.68L8.46 3.68Q8.74 3.25 9.19 3.02L9.19 3.02L9.19 3.02Q9.65 2.80 10.19 2.80L10.19 2.80L10.19 2.80Q10.80 2.80 11.37 3.08L11.37 3.08L10.99 4.15L10.99 4.15Q10.62 3.96 10.31 3.96L10.31 3.96L10.31 3.96Q9.96 3.96 9.74 4.18L9.74 4.18L9.74 4.18Q9.53 4.40 9.53 4.85L9.53 4.85L9.53 5.78L11.32 5.78L11.32 6.88L9.53 6.88L9.53 12.61L8.18 12.61ZM12.52 15.60L12.52 5.78L13.85 5.78L13.85 6.59L13.85 6.59Q14.19 6.13 14.71 5.88L14.71 5.88L14.71 5.88Q15.24 5.63 15.86 5.63L15.86 5.63L15.86 5.63Q16.76 5.63 17.41 6.11L17.41 6.11L17.41 6.11Q18.05 6.58 18.39 7.39L18.39 7.39L18.39 7.39Q18.72 8.20 18.72 9.19L18.72 9.19L18.72 9.19Q18.72 10.17 18.39 10.98L18.39 10.98L18.39 10.98Q18.06 11.79 17.41 12.26L17.41 12.26L17.41 12.26Q16.77 12.74 15.87 12.74L15.87 12.74L15.87 12.74Q15.26 12.74 14.73 12.50L14.73 12.50L14.73 12.50Q14.20 12.26 13.85 11.79L13.85 11.79L13.85 15.60L12.52 15.60ZM15.55 11.56L15.55 11.56Q16.16 11.56 16.57 11.24L16.57 11.24L16.57 11.24Q16.99 10.92 17.19 10.39L17.19 10.39L17.19 10.39Q17.38 9.85 17.38 9.19L17.38 9.19L17.38 9.19Q17.38 8.52 17.19 7.98L17.19 7.98L17.19 7.98Q16.99 7.44 16.57 7.12L16.57 7.12L16.57 7.12Q16.16 6.79 15.55 6.79L15.55 6.79L15.55 6.79Q14.94 6.79 14.53 7.12L14.53 7.12L14.53 7.12Q14.12 7.44 13.92 7.98L13.92 7.98L13.92 7.98Q13.73 8.52 13.73 9.19L13.73 9.19L13.73 9.19Q13.73 9.85 13.92 10.39L13.92 10.39L13.92 10.39Q14.12 10.92 14.53 11.24L14.53 11.24L14.53 11.24Q14.94 11.56 15.55 11.56L15.55 11.56Z"></path></g><!----><!----></svg>