<svg data-v-423bf9ae="" xmlns="http://www.w3.org/2000/svg" viewBox="0 0 146.02442627950376 60" class="font"><!----><!----><!----><g data-v-423bf9ae="" id="c5d4c5a7-0641-478d-ae60-64f621308604" fill="black" transform="matrix(4.970787383284637,0,0,4.970787383284637,-4.143055444450198,-18.59055310856172)"><path d="M9.35 15.29C9.72 15.12 10.07 14.92 10.40 14.69L10.40 14.67L10.42 14.67C10.42 14.66 10.42 14.66 10.43 14.66C10.54 14.56 10.56 14.38 10.44 14.27L9.39 13.02C9.31 12.91 9.14 12.88 9.03 12.95C9.03 12.96 9.02 12.96 9.02 12.96C7.42 14.04 5.22 13.76 3.95 12.26C2.58 10.64 2.77 8.22 4.38 6.85C5.66 5.77 7.45 5.66 8.81 6.45C8.92 6.51 9.03 6.50 9.11 6.43L10.43 5.32C10.54 5.22 10.56 5.04 10.44 4.91L10.42 4.89L10.37 4.86C8.18 3.29 5.11 3.35 2.97 5.17C0.42 7.32 0.11 11.14 2.27 13.68C4.05 15.78 6.96 16.35 9.35 15.29ZM19.99 5.67C19.99 5.82 19.87 5.95 19.73 5.95L15.22 5.95L17.50 8.69L18.28 8.69C18.48 8.69 18.62 8.81 18.62 8.96L18.62 10.60C18.62 10.75 18.48 10.88 18.28 10.88L13.97 10.88L13.97 15.51C13.97 15.67 13.86 15.81 13.71 15.81L12.07 15.81C11.91 15.81 11.79 15.67 11.79 15.51L11.79 8.69L14.64 8.69L11.79 5.25L11.79 4.06C11.79 3.89 11.91 3.77 12.07 3.77L19.73 3.77C19.87 3.77 19.99 3.89 19.99 4.06ZM28.92 4.79C28.10 4.13 26.96 3.78 25.63 3.78L21.81 3.78C21.66 3.78 21.53 3.91 21.53 4.06L21.53 5.18L23.69 8.69L21.53 8.69L21.53 15.53C21.53 15.68 21.66 15.81 21.81 15.81L23.45 15.81C23.60 15.81 23.72 15.68 23.72 15.53L23.72 10.89L25.66 10.89C26.98 10.88 28.11 10.54 28.92 9.88C29.75 9.23 30.21 8.30 30.21 7.34C30.21 6.36 29.75 5.43 28.92 4.79ZM24.58 5.96L25.63 5.96C27.20 5.96 28.03 6.65 28.03 7.34C28.03 7.92 27.41 8.51 26.22 8.67Z"></path></g><!----><!----></svg>