<svg data-v-423bf9ae="" xmlns="http://www.w3.org/2000/svg" viewBox="0 0 129.95205843691778 60" class="font"><!----><!----><!----><g data-v-423bf9ae="" id="d12e6fbe-7779-4659-aa1e-bd5df538b1aa" fill="black" transform="matrix(5.7526364568010235,0,0,5.7526364568010235,0.8628943393022723,-3.85426658166881)"><path d="M3.89 8.75L3.89 8.75L3.89 8.75Q4.24 8.75 4.54 8.60L4.54 8.60L4.54 8.60Q4.84 8.46 5.08 8.20L5.08 8.20L5.08 8.20Q5.31 7.95 5.44 7.62L5.44 7.62L5.44 7.62Q5.57 7.28 5.57 6.90L5.57 6.90L7.92 6.90L7.92 6.90Q7.92 7.74 7.63 8.50L7.63 8.50L7.63 8.50Q7.34 9.25 6.76 9.86L6.76 9.86L6.76 9.86Q6.19 10.46 5.45 10.78L5.45 10.78L5.45 10.78Q4.72 11.10 3.89 11.10L3.89 11.10L3.88 11.10L3.88 11.10Q3.05 11.10 2.32 10.78L2.32 10.78L2.32 10.78Q1.60 10.46 1.01 9.86L1.01 9.86L1.01 9.86Q0.46 9.27 0.16 8.53L0.16 8.53L0.16 8.53Q-0.14 7.80-0.15 6.99L-0.15 6.99L-0.15 4.83L-0.15 4.83Q-0.14 3.99 0.15 3.25L0.15 3.25L0.15 3.25Q0.45 2.51 1.01 1.92L1.01 1.92L1.01 1.92Q1.60 1.32 2.32 0.99L2.32 0.99L2.32 0.99Q3.05 0.67 3.88 0.67L3.88 0.67L3.89 0.67L3.89 0.67Q4.72 0.67 5.45 0.99L5.45 0.99L5.45 0.99Q6.19 1.32 6.76 1.92L6.76 1.92L6.76 1.92Q7.34 2.52 7.63 3.28L7.63 3.28L7.63 3.28Q7.92 4.03 7.92 4.87L7.92 4.87L5.57 4.87L5.57 4.87Q5.57 4.49 5.44 4.16L5.44 4.16L5.44 4.16Q5.31 3.82 5.08 3.57L5.08 3.57L5.08 3.57Q4.84 3.32 4.54 3.17L4.54 3.17L4.54 3.17Q4.24 3.02 3.89 3.02L3.89 3.02L3.89 3.02Q3.54 3.02 3.23 3.17L3.23 3.17L3.23 3.17Q2.93 3.32 2.69 3.57L2.69 3.57L2.69 3.57Q2.46 3.82 2.33 4.16L2.33 4.16L2.33 4.16Q2.20 4.49 2.20 4.87L2.20 4.87L2.20 6.90L2.20 6.90Q2.20 7.28 2.33 7.62L2.33 7.62L2.33 7.62Q2.46 7.95 2.69 8.20L2.69 8.20L2.69 8.20Q2.93 8.46 3.23 8.60L3.23 8.60L3.23 8.60Q3.54 8.75 3.89 8.75ZM15.12 3.02L15.12 3.02L11.09 3.02L11.09 4.70L14.06 4.70L14.06 7.06L11.09 7.06L11.09 11.09L8.74 11.09L8.74 0.67L15.12 0.67L15.12 3.02ZM19.21 0.67L19.21 0.67L19.21 0.67Q19.88 0.67 20.47 0.92L20.47 0.92L20.47 0.92Q21.06 1.18 21.50 1.62L21.50 1.62L21.50 1.62Q21.94 2.06 22.19 2.65L22.19 2.65L22.19 2.65Q22.44 3.23 22.44 3.91L22.44 3.91L22.44 3.91Q22.44 4.58 22.19 5.17L22.19 5.17L22.19 5.17Q21.94 5.75 21.50 6.20L21.50 6.20L21.50 6.20Q21.06 6.64 20.47 6.89L20.47 6.89L20.47 6.89Q19.88 7.14 19.21 7.14L19.21 7.14L19.19 7.14L18.38 7.14L18.38 11.09L16.03 11.09L16.03 0.67L19.19 0.67L19.21 0.67Z"></path></g><!----><!----></svg>